<mxfile host="app.diagrams.net" agent="Mozilla/5.0 (Windows NT 10.0; Win64; x64) AppleWebKit/537.36 (KHTML, like Gecko) Chrome/132.0.0.0 Safari/537.36" version="26.0.11">
  <diagram name="Страница — 1" id="kmBG-zK_c7b2vrmxiv7J">
    <mxGraphModel dx="1050" dy="557" grid="1" gridSize="6" guides="1" tooltips="1" connect="1" arrows="1" fold="1" page="1" pageScale="1" pageWidth="827" pageHeight="1169" math="0" shadow="0">
      <root>
        <mxCell id="0" />
        <mxCell id="1" parent="0" />
        <mxCell id="KZRkceOoxlusmaqCHyQE-10" style="edgeStyle=orthogonalEdgeStyle;rounded=0;orthogonalLoop=1;jettySize=auto;html=1;exitX=0.5;exitY=1;exitDx=0;exitDy=0;entryX=0.5;entryY=0;entryDx=0;entryDy=0;" edge="1" parent="1" source="lhlynafi9lXWI87qRTMh-3" target="lhlynafi9lXWI87qRTMh-5">
          <mxGeometry relative="1" as="geometry" />
        </mxCell>
        <mxCell id="lhlynafi9lXWI87qRTMh-3" value="" style="ellipse;whiteSpace=wrap;html=1;aspect=fixed;strokeColor=#000000;fillColor=#000000;gradientColor=none;" parent="1" vertex="1">
          <mxGeometry x="400.64" y="24" width="40" height="40" as="geometry" />
        </mxCell>
        <mxCell id="KZRkceOoxlusmaqCHyQE-9" style="edgeStyle=orthogonalEdgeStyle;rounded=0;orthogonalLoop=1;jettySize=auto;html=1;exitX=0.5;exitY=1;exitDx=0;exitDy=0;entryX=0.5;entryY=0;entryDx=0;entryDy=0;" edge="1" parent="1" source="lhlynafi9lXWI87qRTMh-5" target="lhlynafi9lXWI87qRTMh-9">
          <mxGeometry relative="1" as="geometry" />
        </mxCell>
        <mxCell id="lhlynafi9lXWI87qRTMh-5" value="system(&quot;chcp 65001 &amp;gt;&amp;gt; null&quot;)" style="shape=process;whiteSpace=wrap;html=1;backgroundOutline=1;fontSize=6;" parent="1" vertex="1">
          <mxGeometry x="367.29" y="90" width="106.71" height="24" as="geometry" />
        </mxCell>
        <mxCell id="KZRkceOoxlusmaqCHyQE-8" style="edgeStyle=orthogonalEdgeStyle;rounded=0;orthogonalLoop=1;jettySize=auto;html=1;exitX=0.5;exitY=1;exitDx=0;exitDy=0;entryX=0.5;entryY=0;entryDx=0;entryDy=0;" edge="1" parent="1" source="lhlynafi9lXWI87qRTMh-9" target="lhlynafi9lXWI87qRTMh-10">
          <mxGeometry relative="1" as="geometry" />
        </mxCell>
        <mxCell id="lhlynafi9lXWI87qRTMh-9" value="wczytajNazwyFubnkcji(&quot;nazwyFunkcji.txt&quot;);&lt;br&gt;graniceZPliku(&quot;granice.txt&quot;):" style="shape=process;whiteSpace=wrap;html=1;backgroundOutline=1;fontSize=6;" parent="1" vertex="1">
          <mxGeometry x="343.28" y="138" width="154.72" height="24" as="geometry" />
        </mxCell>
        <mxCell id="KZRkceOoxlusmaqCHyQE-33" style="edgeStyle=orthogonalEdgeStyle;rounded=0;orthogonalLoop=1;jettySize=auto;html=1;exitX=0.5;exitY=1;exitDx=0;exitDy=0;entryX=0.5;entryY=0;entryDx=0;entryDy=0;" edge="1" parent="1" source="lhlynafi9lXWI87qRTMh-10" target="KZRkceOoxlusmaqCHyQE-31">
          <mxGeometry relative="1" as="geometry" />
        </mxCell>
        <mxCell id="lhlynafi9lXWI87qRTMh-10" value="char wybranaFunkcja = &quot; &quot;" style="rounded=0;whiteSpace=wrap;html=1;fontSize=6;" parent="1" vertex="1">
          <mxGeometry x="360.64" y="186" width="120" height="24" as="geometry" />
        </mxCell>
        <mxCell id="KZRkceOoxlusmaqCHyQE-40" style="edgeStyle=orthogonalEdgeStyle;rounded=0;orthogonalLoop=1;jettySize=auto;html=1;exitX=0.5;exitY=1;exitDx=0;exitDy=0;entryX=0.5;entryY=0;entryDx=0;entryDy=0;" edge="1" parent="1" source="KZRkceOoxlusmaqCHyQE-4" target="KZRkceOoxlusmaqCHyQE-36">
          <mxGeometry relative="1" as="geometry" />
        </mxCell>
        <mxCell id="KZRkceOoxlusmaqCHyQE-4" value="double dolnaGranica, gornaGranica" style="rounded=0;whiteSpace=wrap;html=1;fontSize=6;" vertex="1" parent="1">
          <mxGeometry x="336" y="378" width="108" height="24" as="geometry" />
        </mxCell>
        <mxCell id="KZRkceOoxlusmaqCHyQE-14" value="" style="ellipse;whiteSpace=wrap;html=1;aspect=fixed;" vertex="1" parent="1">
          <mxGeometry x="515.68" y="336" width="33.32" height="33.32" as="geometry" />
        </mxCell>
        <mxCell id="KZRkceOoxlusmaqCHyQE-15" value="" style="ellipse;whiteSpace=wrap;html=1;aspect=fixed;fillColor=#000000;" vertex="1" parent="1">
          <mxGeometry x="520.3399999999999" y="340.65999999999997" width="24" height="24" as="geometry" />
        </mxCell>
        <mxCell id="KZRkceOoxlusmaqCHyQE-23" value="&lt;p&gt;&lt;span style=&quot;font-size: 7px;&quot;&gt;wynikSprawdzenia&lt;br&gt;&lt;br&gt;&lt;br&gt;&lt;/span&gt;&lt;/p&gt;" style="shape=hexagon;perimeter=hexagonPerimeter2;whiteSpace=wrap;html=1;fixedSize=1;direction=west;align=center;" vertex="1" parent="1">
          <mxGeometry x="336.64" y="288" width="168" height="42" as="geometry" />
        </mxCell>
        <mxCell id="KZRkceOoxlusmaqCHyQE-29" style="edgeStyle=orthogonalEdgeStyle;rounded=0;orthogonalLoop=1;jettySize=auto;html=1;exitX=0.5;exitY=1;exitDx=0;exitDy=0;entryX=0.5;entryY=0;entryDx=0;entryDy=0;" edge="1" parent="1" source="KZRkceOoxlusmaqCHyQE-25" target="KZRkceOoxlusmaqCHyQE-4">
          <mxGeometry relative="1" as="geometry" />
        </mxCell>
        <mxCell id="KZRkceOoxlusmaqCHyQE-25" value="&lt;font style=&quot;font-size: 6px;&quot;&gt;a, b, c, d, e, f, g&lt;/font&gt;" style="rounded=0;whiteSpace=wrap;html=1;" vertex="1" parent="1">
          <mxGeometry x="359.68" y="312" width="60.64" height="18" as="geometry" />
        </mxCell>
        <mxCell id="KZRkceOoxlusmaqCHyQE-28" style="edgeStyle=orthogonalEdgeStyle;rounded=0;orthogonalLoop=1;jettySize=auto;html=1;exitX=0.5;exitY=1;exitDx=0;exitDy=0;entryX=0;entryY=0.5;entryDx=0;entryDy=0;" edge="1" parent="1" source="KZRkceOoxlusmaqCHyQE-26" target="KZRkceOoxlusmaqCHyQE-14">
          <mxGeometry relative="1" as="geometry" />
        </mxCell>
        <mxCell id="KZRkceOoxlusmaqCHyQE-26" value="&lt;font style=&quot;font-size: 9px;&quot;&gt;x&lt;/font&gt;" style="rounded=0;whiteSpace=wrap;html=1;" vertex="1" parent="1">
          <mxGeometry x="420.32" y="312" width="59.36" height="18" as="geometry" />
        </mxCell>
        <mxCell id="KZRkceOoxlusmaqCHyQE-35" style="edgeStyle=orthogonalEdgeStyle;rounded=0;orthogonalLoop=1;jettySize=auto;html=1;exitX=0.5;exitY=1;exitDx=0;exitDy=0;" edge="1" parent="1" source="KZRkceOoxlusmaqCHyQE-31" target="KZRkceOoxlusmaqCHyQE-23">
          <mxGeometry relative="1" as="geometry" />
        </mxCell>
        <mxCell id="KZRkceOoxlusmaqCHyQE-31" value="&lt;font style=&quot;font-size: 6px;&quot;&gt;int wynikSprawdzenia = sprawdzWybor(wybranaFunkcja)&lt;/font&gt;" style="rounded=0;whiteSpace=wrap;html=1;" vertex="1" parent="1">
          <mxGeometry x="343.61" y="240" width="154.05" height="24" as="geometry" />
        </mxCell>
        <mxCell id="KZRkceOoxlusmaqCHyQE-41" style="edgeStyle=orthogonalEdgeStyle;rounded=0;orthogonalLoop=1;jettySize=auto;html=1;exitX=0.5;exitY=1;exitDx=0;exitDy=0;entryX=0.5;entryY=0;entryDx=0;entryDy=0;" edge="1" parent="1" source="KZRkceOoxlusmaqCHyQE-36" target="KZRkceOoxlusmaqCHyQE-37">
          <mxGeometry relative="1" as="geometry" />
        </mxCell>
        <mxCell id="KZRkceOoxlusmaqCHyQE-36" value="&lt;font style=&quot;font-size: 6px;&quot;&gt;int wyborGranic = wyborWprowadzeniaGranic()&lt;/font&gt;" style="rounded=0;whiteSpace=wrap;html=1;" vertex="1" parent="1">
          <mxGeometry x="313.5" y="420" width="153" height="24" as="geometry" />
        </mxCell>
        <mxCell id="KZRkceOoxlusmaqCHyQE-42" style="edgeStyle=orthogonalEdgeStyle;rounded=0;orthogonalLoop=1;jettySize=auto;html=1;exitX=0.5;exitY=1;exitDx=0;exitDy=0;entryX=0.5;entryY=0;entryDx=0;entryDy=0;" edge="1" parent="1" source="KZRkceOoxlusmaqCHyQE-37" target="KZRkceOoxlusmaqCHyQE-39">
          <mxGeometry relative="1" as="geometry" />
        </mxCell>
        <mxCell id="KZRkceOoxlusmaqCHyQE-37" value="&lt;font style=&quot;font-size: 6px;&quot;&gt;ustalGraniceCalkowania(wyborGranic, wybranaFunkcja, dolnaGranica, gornaGranica)&lt;/font&gt;" style="shape=process;whiteSpace=wrap;html=1;backgroundOutline=1;" vertex="1" parent="1">
          <mxGeometry x="306" y="462" width="168" height="30" as="geometry" />
        </mxCell>
        <mxCell id="KZRkceOoxlusmaqCHyQE-39" value="&lt;font style=&quot;font-size: 6px;&quot;&gt;obliczIZaprezentujWynik(wybranaFunkcja, dolnaGranica, gornaGranica)&lt;/font&gt;" style="shape=process;whiteSpace=wrap;html=1;backgroundOutline=1;" vertex="1" parent="1">
          <mxGeometry x="306" y="510" width="168" height="30" as="geometry" />
        </mxCell>
        <mxCell id="KZRkceOoxlusmaqCHyQE-47" value="" style="endArrow=none;html=1;rounded=0;exitX=0;exitY=1;exitDx=0;exitDy=0;" edge="1" parent="1" source="KZRkceOoxlusmaqCHyQE-53">
          <mxGeometry width="50" height="50" relative="1" as="geometry">
            <mxPoint x="240" y="578" as="sourcePoint" />
            <mxPoint x="240" y="228" as="targetPoint" />
          </mxGeometry>
        </mxCell>
        <mxCell id="KZRkceOoxlusmaqCHyQE-48" value="" style="endArrow=classic;html=1;rounded=0;" edge="1" parent="1">
          <mxGeometry width="50" height="50" relative="1" as="geometry">
            <mxPoint x="240" y="228" as="sourcePoint" />
            <mxPoint x="420" y="228" as="targetPoint" />
          </mxGeometry>
        </mxCell>
        <mxCell id="KZRkceOoxlusmaqCHyQE-53" value="" style="shape=partialRectangle;whiteSpace=wrap;html=1;top=0;left=0;fillColor=none;" vertex="1" parent="1">
          <mxGeometry x="240" y="540" width="150" height="36" as="geometry" />
        </mxCell>
      </root>
    </mxGraphModel>
  </diagram>
</mxfile>
